<?xml version="1.0" encoding="UTF-8"?>
<svg width="64px" height="64px" viewBox="0 0 64 64" version="1.1" xmlns="http://www.w3.org/2000/svg" xmlns:xlink="http://www.w3.org/1999/xlink">
    <!-- Generator: Sketch 55.2 (78181) - https://sketchapp.com -->
    <title>Fill 18</title>
    <desc>Created with Sketch.</desc>
    <g id="Page-1" stroke="none" stroke-width="1" fill="none" fill-rule="evenodd">
        <g id="home" transform="translate(-369.000000, -713.000000)" fill="#00A7FF">
            <path d="M426.509818,742.090909 L375.493091,742.090909 C378.149091,753.733091 388.566545,762.454545 401,762.454545 C413.436364,762.454545 423.853818,753.733091 426.509818,742.090909 L426.509818,742.090909 Z M395.181818,771.181818 L406.818182,771.181818 L406.818182,768.272727 L395.181818,768.272727 L395.181818,771.181818 Z M412.636364,766.050182 L412.636364,777 L389.363636,777 L389.363636,766.050182 C377.465455,761.381091 369,749.808727 369,736.272727 L433,736.272727 C433,749.808727 424.537455,761.381091 412.636364,766.050182 L412.636364,766.050182 Z M386.454545,730.454545 L392.272727,730.454545 L392.272727,718.818182 L386.454545,718.818182 L386.454545,730.454545 Z M409.727273,730.454545 L415.545455,730.454545 L415.545455,718.818182 L409.727273,718.818182 L409.727273,730.454545 Z M398.090909,730.454545 L403.909091,730.454545 L403.909091,713 L398.090909,713 L398.090909,730.454545 Z" id="Fill-18"></path>
        </g>
    </g>
</svg>