<?xml version="1.0" encoding="UTF-8"?>
<svg width="64px" height="64px" viewBox="0 0 64 64" version="1.1" xmlns="http://www.w3.org/2000/svg" xmlns:xlink="http://www.w3.org/1999/xlink">
    <!-- Generator: Sketch 55.2 (78181) - https://sketchapp.com -->
    <title>Fill 34</title>
    <desc>Created with Sketch.</desc>
    <g id="Page-1" stroke="none" stroke-width="1" fill="none" fill-rule="evenodd">
        <g id="home" transform="translate(-689.000000, -713.000000)" fill="#00A7FF">
            <path d="M747.181818,756.636364 L736.185455,756.636364 L737.930909,747.909091 L741.363636,747.909091 L741.363636,742.090909 L735.545455,742.090909 L735.545455,727.545455 L706.454545,727.545455 L706.454545,742.090909 L700.636364,742.090909 L700.636364,747.909091 L704.069091,747.909091 L705.814545,756.636364 L694.818182,756.636364 L694.818182,727.545455 C694.818182,722.733818 698.733818,718.818182 703.545455,718.818182 L738.454545,718.818182 C743.266182,718.818182 747.181818,722.733818 747.181818,727.545455 L747.181818,756.636364 Z M727.341818,771.181818 L723.909091,771.181818 L723.909091,762.454545 L729.087273,762.454545 L727.341818,771.181818 Z M712.272727,742.090909 L729.727273,742.090909 L729.727273,733.363636 L712.272727,733.363636 L712.272727,742.090909 Z M731.996364,747.909091 L730.250909,756.636364 L723.909091,756.636364 L723.909091,747.909091 L731.996364,747.909091 Z M710.003636,747.909091 L718.090909,747.909091 L718.090909,756.636364 L711.749091,756.636364 L710.003636,747.909091 Z M712.912727,762.454545 L718.090909,762.454545 L718.090909,771.181818 L714.658182,771.181818 L712.912727,762.454545 Z M753,727.545455 C753,719.525091 746.474909,713 738.454545,713 L703.545455,713 C695.525091,713 689,719.525091 689,727.545455 L689,762.454545 L706.978182,762.454545 L709.887273,777 L732.112727,777 L735.021818,762.454545 L753,762.454545 L753,727.545455 Z" id="Fill-34"></path>
        </g>
    </g>
</svg>