<?xml version="1.0" encoding="UTF-8"?>
<svg width="64px" height="59px" viewBox="0 0 64 59" version="1.1" xmlns="http://www.w3.org/2000/svg" xmlns:xlink="http://www.w3.org/1999/xlink">
    <!-- Generator: Sketch 55.2 (78181) - https://sketchapp.com -->
    <title>Fill 11</title>
    <desc>Created with Sketch.</desc>
    <g id="Page-1" stroke="none" stroke-width="1" fill="none" fill-rule="evenodd">
        <g id="home" transform="translate(-1009.000000, -715.000000)" fill="#00A7FF">
            <path d="M1026.14305,720.417302 L1035.73709,720.417302 L1026.0645,733.960555 L1016.47046,733.960555 L1026.14305,720.417302 Z M1056.4041,739.377857 L1064.95531,739.377857 L1049.28035,757.905028 L1056.4041,739.377857 Z M1032.71965,733.960555 L1041,722.370239 L1049.28035,733.960555 L1032.71965,733.960555 Z M1050.59946,739.377857 L1041,764.335365 L1031.40054,739.377857 L1050.59946,739.377857 Z M1025.5959,739.377857 L1032.72236,757.905028 L1017.0474,739.377857 L1025.5959,739.377857 Z M1065.53225,733.960555 L1055.93821,733.960555 L1046.26562,720.417302 L1055.85966,720.417302 L1065.53225,733.960555 Z M1059.45675,716.134925 L1057.2519,715 L1024.7481,715 L1022.54325,716.134925 L1009,735.09548 L1009.13814,738.418994 L1038.9333,773.631454 L1043.06941,773.631454 L1072.86457,738.418994 L1073,735.09548 L1059.45675,716.134925 Z" id="Fill-11"></path>
        </g>
    </g>
</svg>