<?xml version="1.0" encoding="UTF-8"?>
<svg width="162px" height="162px" viewBox="0 0 162 162" version="1.1" xmlns="http://www.w3.org/2000/svg" xmlns:xlink="http://www.w3.org/1999/xlink">
    <!-- Generator: Sketch 55.2 (78181) - https://sketchapp.com -->
    <title>settings</title>
    <desc>Created with Sketch.</desc>
    <defs>
        <rect id="path-1" x="0" y="0" width="162" height="162"></rect>
    </defs>
    <g id="settings" stroke="none" stroke-width="1" fill="none" fill-rule="evenodd">
        <mask id="mask-2" fill="white">
            <use xlink:href="#path-1"></use>
        </mask>
        <use id="Rectangle" fill-opacity="0.200000003" fill="#D0D0D0" xlink:href="#path-1"></use>
        <path d="M44.5734694,89.1142857 L50.5122449,89.1142857 C51.3040816,91.6877551 52.0959184,94.0632653 53.4816327,96.2408163 L49.3244898,100.397959 C48.3346939,101.387755 48.3346939,103.169388 49.3244898,104.159184 L57.4408163,112.27551 C58.4306122,113.265306 60.2122449,113.265306 61.2020408,112.27551 L65.3591837,108.118367 C67.5367347,109.306122 69.9122449,110.295918 72.4857143,111.087755 L72.4857143,117.026531 C72.4857143,118.412245 73.6734694,119.6 75.0591837,119.6 L86.5408163,119.6 C87.9265306,119.6 89.1142857,118.412245 89.1142857,117.026531 L89.1142857,111.087755 C91.6877551,110.493878 94.0632653,109.504082 96.2408163,108.118367 L100.397959,112.27551 C101.387755,113.265306 103.169388,113.265306 104.159184,112.27551 L112.27551,104.159184 C113.265306,103.169388 113.265306,101.387755 112.27551,100.397959 L108.118367,96.2408163 C109.306122,94.0632653 110.295918,91.6877551 111.087755,89.1142857 L117.026531,89.1142857 C118.412245,89.1142857 119.6,87.9265306 119.6,86.5408163 L119.6,75.0591837 C119.6,73.6734694 118.412245,72.4857143 117.026531,72.4857143 L111.087755,72.4857143 C110.295918,69.9122449 109.504082,67.5367347 108.118367,65.3591837 L112.27551,61.2020408 C113.265306,60.2122449 113.265306,58.4306122 112.27551,57.4408163 L104.159184,49.3244898 C103.169388,48.3346939 101.387755,48.3346939 100.397959,49.3244898 L96.2408163,53.4816327 C94.0632653,52.2938776 91.6877551,51.3040816 89.1142857,50.5122449 L89.1142857,44.5734694 C89.1142857,43.1877551 87.9265306,42 86.5408163,42 L75.0591837,42 C73.6734694,42 72.4857143,43.1877551 72.4857143,44.5734694 L72.4857143,50.5122449 C69.9122449,51.3040816 67.5367347,52.0959184 65.3591837,53.4816327 L61.2020408,49.3244898 C60.2122449,48.3346939 58.4306122,48.3346939 57.4408163,49.3244898 L49.3244898,57.4408163 C48.3346939,58.4306122 48.3346939,60.2122449 49.3244898,61.2020408 L53.4816327,65.3591837 C52.2938776,67.5367347 51.3040816,69.9122449 50.5122449,72.4857143 L44.5734694,72.4857143 C43.1877551,72.4857143 42,73.6734694 42,75.0591837 L42,86.5408163 C42,87.9265306 43.1877551,89.1142857 44.5734694,89.1142857 Z M80.6020408,65.5571429 C88.9163265,65.5571429 95.6469388,72.2877551 95.6469388,80.6020408 C95.6469388,88.9163265 88.9163265,95.6469388 80.6020408,95.6469388 C72.2877551,95.6469388 65.5571429,88.9163265 65.5571429,80.6020408 C65.5571429,72.2877551 72.2877551,65.5571429 80.6020408,65.5571429 Z" id="Shape" fill="#ccc" fill-rule="nonzero" mask="url(#mask-2)"></path>
    </g>
</svg>