<?xml version="1.0" encoding="UTF-8"?>
<svg width="425px" height="539px" viewBox="0 0 425 539" version="1.1" xmlns="http://www.w3.org/2000/svg" xmlns:xlink="http://www.w3.org/1999/xlink">
    <!-- Generator: Sketch 55.2 (78181) - https://sketchapp.com -->
    <title>Group 13</title>
    <desc>Created with Sketch.</desc>
    <g id="Page-1" stroke="none" stroke-width="1" fill="none" fill-rule="evenodd">
        <g id="Group-13" transform="translate(1.000000, 1.000000)">
            <circle id="Oval" fill="#4360DF" cx="188.5" cy="251.5" r="132.5"></circle>
            <g id="Group-12">
                <path d="M211.5,383 C317.26253,383 423,297.26253 423,191.5 C423,85.7374704 317.26253,0 211.5,0 C105.73747,0 0,85.7374704 0,191.5 C0,297.26253 105.73747,383 211.5,383 Z" id="Oval" stroke="#000000" fill="#000000"></path>
                <rect id="Rectangle" fill="#00A7FF" x="59" y="128" width="305" height="365" rx="152.5"></rect>
                <path d="M263.930921,307 C270.15,307 275.197368,312.047368 275.197368,318.266447 C275.197368,324.485526 270.15,329.532895 263.930921,329.532895 C257.711842,329.532895 252.664474,324.485526 252.664474,318.266447 C252.664474,312.047368 257.711842,307 263.930921,307 Z" id="Path" fill="#000000"></path>
                <path d="M151.266447,307 C157.485526,307 162.532895,312.047368 162.532895,318.266447 C162.532895,324.485526 157.485526,329.532895 151.266447,329.532895 C145.047368,329.532895 140,324.485526 140,318.266447 C140,312.047368 145.047368,307 151.266447,307 Z" id="Path" fill="#000000"></path>
                <path d="M59.5,128.5 L59.5,270.196902 L211.5,195.442804 L363.5,270.196902 L363.5,128.5 L59.5,128.5 Z" id="Rectangle" stroke="#000000" fill="#000000"></path>
                <path d="M221.2773,87.4621667 L247.207012,130.678354 C249.501812,134.50302 249.259884,139.334839 246.59452,142.911151 L220.361407,178.110011 C216.731049,182.981124 209.839246,183.986954 204.968134,180.356597 C204.10122,179.710501 203.334298,178.940125 202.692104,178.070317 L176.42731,142.496483 C173.753764,138.875351 173.556135,133.990733 175.928403,130.16545 L202.496597,87.3242368 C205.698404,82.161324 212.479348,80.5715332 217.642261,83.7733395 C219.130253,84.6961252 220.376469,85.9607817 221.2773,87.4621667 Z" id="Rectangle" fill="#FFFFFF"></path>
                <path d="M207,537 C252.287349,537 289,470.287349 289,425 C289,379.712651 252.287349,363 207,363 C161.712651,363 125,379.712651 125,425 C125,470.287349 161.712651,537 207,537 Z" id="Oval" stroke="#000000" fill="#000000"></path>
                <path d="M172,423 C183.583651,416.333333 195.029221,413 206.336709,413 C233.286002,413 242,422 242,422" id="Line-21" stroke="#FFFFFF" stroke-width="13" stroke-linecap="round" stroke-linejoin="round" transform="translate(207.000000, 418.000000) scale(-1, -1) translate(-207.000000, -418.000000) "></path>
                <path d="M122.5,307 L176.098684,307" id="Line-22" stroke="#000000" stroke-width="13" fill="#000000" stroke-linecap="round"></path>
                <path d="M232.5,307 L286.098684,307" id="Line-22" stroke="#000000" stroke-width="13" fill="#000000" stroke-linecap="round"></path>
            </g>
        </g>
    </g>
</svg>