<svg width="450" height="210" viewBox="0 0 450 210" fill="none" xmlns="http://www.w3.org/2000/svg">
<path fill-rule="evenodd" clip-rule="evenodd" d="M109.054 45H60.7763V83.7519H44V97.634H60.7763V112.205H44V126.087H60.7763V164.368H109.054C138.088 164.368 160.176 148.735 168.675 126.087H184V112.205H172.036C172.329 109.743 172.479 107.23 172.479 104.674V104.333C172.479 102.062 172.361 99.8275 172.128 97.634H184V83.7519H168.961C160.68 60.7841 138.42 45 109.054 45ZM74.2729 151.915V126.087H153.887C146.464 141.571 130.518 151.915 109.054 151.915H74.2729ZM74.2729 112.205H158.022C158.346 109.867 158.512 107.467 158.512 105.015V104.674C158.512 102.277 158.354 99.9269 158.043 97.634H74.2729V112.205ZM153.989 83.7519C146.611 68.0503 130.617 57.4326 109.054 57.4326H74.2729V83.7519H153.989Z" fill="white"/>
<path fill-rule="evenodd" clip-rule="evenodd" d="M269.333 78.4766C266.022 77.8613 262.404 77.5537 258.479 77.5537H246.33C240.807 77.5537 236.33 82.0309 236.33 87.5537V130C236.33 135.523 240.807 140 246.33 140H252.502C255.109 140 257.131 139.985 258.566 139.956C260.031 139.927 261.892 139.81 264.147 139.604C266.403 139.37 268.454 139.048 270.3 138.638C273.903 137.847 277.097 136.631 279.88 134.99C282.692 133.32 284.963 131.46 286.691 129.409C288.449 127.329 289.885 125 290.998 122.422C292.111 119.814 292.888 117.266 293.327 114.775C293.767 112.256 293.986 109.648 293.986 106.953C293.986 104.902 293.825 102.925 293.503 101.021C293.21 99.0869 292.668 97.124 291.877 95.1318C291.115 93.1396 290.134 91.2939 288.933 89.5947C287.731 87.8955 286.193 86.2988 284.318 84.8047C282.443 83.3105 280.305 82.0361 277.902 80.9814C275.5 79.9268 272.644 79.0918 269.333 78.4766ZM247.404 87.749H258.786C261.364 87.749 263.386 87.8516 264.851 88.0566C266.579 88.291 268.264 88.7158 269.904 89.3311C271.545 89.9463 273.156 90.8105 274.738 91.9238C276.35 93.0371 277.741 94.3408 278.913 95.835C280.114 97.2998 281.066 99.1162 281.77 101.284C282.502 103.452 282.868 105.825 282.868 108.403C282.868 112.886 281.872 116.797 279.88 120.137C278.796 121.953 277.434 123.506 275.793 124.795C274.182 126.055 272.614 127.007 271.091 127.651C269.597 128.267 267.78 128.75 265.642 129.102C263.503 129.453 261.774 129.658 260.456 129.717C259.138 129.775 257.468 129.805 255.446 129.805H247.404V87.749Z" fill="white"/>
<path fill-rule="evenodd" clip-rule="evenodd" d="M337.734 77.5537C334.075 77.5537 330.787 79.7879 329.439 83.1899L306.931 140H317.653L324.641 123.652H350.129L357.116 140H368.498L346.032 83.195C344.685 79.7903 341.396 77.5537 337.734 77.5537ZM337.385 90.3418L346.262 113.501H328.464L337.385 90.3418Z" fill="white"/>
<path d="M395 83.0908C395 80.0328 397.479 77.5537 400.537 77.5537C403.595 77.5537 406.074 80.0328 406.074 83.0908V140H395V83.0908Z" fill="white"/>
</svg>
