<?xml version="1.0" encoding="UTF-8"?>
<svg width="162px" height="162px" viewBox="0 0 162 162" version="1.1" xmlns="http://www.w3.org/2000/svg" xmlns:xlink="http://www.w3.org/1999/xlink">
    <!-- Generator: Sketch 55.2 (78181) - https://sketchapp.com -->
    <title>lottery</title>
    <desc>Created with Sketch.</desc>
    <defs>
        <rect id="path-1" x="0" y="0" width="162" height="162"></rect>
    </defs>
    <g id="lottery" stroke="none" stroke-width="1" fill="none" fill-rule="evenodd">
        <mask id="mask-2" fill="white">
            <use xlink:href="#path-1"></use>
        </mask>
        <use id="Rectangle" fill-opacity="0.200000003" fill="#D0D0D0" xlink:href="#path-1"></use>
        <path d="M67.2992187,111.215137 L81.41468,111.215137 L87.1453708,116.036746 L61.568528,116.036746 L67.2992187,111.215137 Z M51.3930309,83.3280925 C58.0181703,87.2076951 66.7815726,88.6911264 74.3560348,88.6911264 C81.9414719,88.6911264 90.6829245,87.2076951 97.3208679,83.3299217 C92.9748349,92.0110127 84.1144884,97.5240359 74.3560348,97.5240359 C64.5975813,97.5222068 55.7372347,92.0091835 51.3930309,83.3280925 Z M49.2053813,74.4567711 L99.5066883,74.4567711 C95.6289148,81.4404217 81.3780973,83.492715 74.3560348,83.492715 C67.3431181,83.492715 53.0740091,81.431276 49.2053813,74.4567711 Z M40.2938189,74.4567711 L43.6045594,74.4567711 C44.9361722,90.4178331 58.3218073,102.718789 74.3560348,102.718789 C90.3902623,102.718789 103.777727,90.4178331 105.10751,74.4567711 L108.42008,74.4567711 C107.081151,92.2451424 92.2120842,106.020384 74.3560348,106.020384 C56.4999854,106.020384 41.6327482,92.2451424 40.2938189,74.4567711 Z M105.10751,69.2601888 C103.775897,53.300956 90.3902623,41 74.3560348,41 C58.3236364,41 44.9361722,53.300956 43.6063886,69.2601888 L35.0001437,69.2601888 C35.0001437,71.4496675 34.9874883,73.6867038 35.1996683,75.8432581 C36.741632,91.1750964 47.1768668,104.216853 61.7276631,109.144552 L56.2823179,113.724715 L56.2823179,121.233328 L92.4315808,121.233328 L92.4315808,113.726544 L86.9862357,109.146382 C102.016266,104.059548 112.594174,90.3464967 113.629466,74.4586003 L117.013372,74.4586003 L117.013372,82.9549483 L126.457214,82.9549483 L126.457214,77.758366 L122.208125,77.758366 L122.208125,69.2601888 L105.10751,69.2601888 Z M97.3208679,60.3888674 C90.7012159,56.5129231 81.9231805,55.0294918 74.3560348,55.0294918 C66.7852308,55.0294918 58.014512,56.5129231 51.3930309,60.3906966 C55.7372347,51.7096055 64.5994104,46.1965818 74.3560348,46.1965818 C84.1126592,46.1947532 92.9748349,51.7096055 97.3208679,60.3888674 Z M99.5048592,69.2601888 L49.2072105,69.2601888 C53.0831548,62.2783674 67.3358015,60.224245 74.3560348,60.224245 C81.3780973,60.224245 95.6289148,62.2783674 99.5048592,69.2601888 Z" id="Shape" fill="#00A7FF" fill-rule="nonzero" mask="url(#mask-2)"></path>
    </g>
</svg>