<?xml version="1.0" encoding="UTF-8"?>
<svg width="162px" height="162px" viewBox="0 0 162 162" version="1.1" xmlns="http://www.w3.org/2000/svg" xmlns:xlink="http://www.w3.org/1999/xlink">
    <!-- Generator: Sketch 55.2 (78181) - https://sketchapp.com -->
    <title>manual</title>
    <desc>Created with Sketch.</desc>
    <defs>
        <rect id="path-1" x="0" y="0" width="162" height="162"></rect>
    </defs>
    <g id="manual" stroke="none" stroke-width="1" fill="none" fill-rule="evenodd">
        <mask id="mask-2" fill="white">
            <use xlink:href="#path-1"></use>
        </mask>
        <use id="Rectangle" fill-opacity="0.200000003" fill="#D0D0D0" xlink:href="#path-1"></use>
        <path d="M110.353427,46.0419463 L102.700264,37.147651 C101.634634,35.9043624 99.8908749,35.8087248 98.6314936,36.7651007 C97.3721122,37.8171141 97.2752368,39.5385906 98.2439916,40.7818792 L105.897155,49.6761745 C106.284657,50.1543624 106.478408,50.7281879 106.381532,51.397651 C106.284657,51.9714765 105.99403,52.545302 105.412778,52.9278523 C104.540898,53.5016779 103.378392,53.4060403 102.603388,52.6409396 L97.0814858,47.2852349 C95.91898,46.1375839 94.1752212,45.8506711 92.722089,46.4244966 C91.1720812,46.9983221 90.2033263,48.5285235 90.2033263,50.1543624 L90.2033263,85.0620805 C90.2033263,86.2097315 89.2345715,87.1661074 88.0720657,87.1661074 C87.4908128,87.1661074 87.0064353,86.9748322 86.6189334,86.5922819 C86.2314315,86.2097315 86.0376805,85.635906 86.0376805,85.1577181 L86.0376805,60.9614094 C86.0376805,59.4312081 84.7782992,58.0922819 83.1314159,58.0922819 C81.4845327,58.0922819 80.2251514,59.3355705 80.2251514,60.9614094 L80.2251514,64.2130872 C80.2251514,65.3607383 79.2563965,66.3171141 78.0938907,66.3171141 C76.9313849,66.3171141 75.96263,65.3607383 75.96263,64.2130872 L75.96263,57.9966443 C75.96263,56.466443 74.7032487,55.1275168 73.0563655,55.1275168 C71.5063577,55.1275168 70.1501009,56.3708054 70.1501009,57.9966443 L70.1501009,61.2483221 C70.1501009,62.3959732 69.1813461,63.352349 68.0188402,63.352349 C66.8563344,63.352349 65.8875796,62.3959732 65.8875796,61.2483221 L65.8875796,55.0318792 C65.8875796,53.5016779 64.6281983,52.1627517 62.981315,52.1627517 C61.4313072,52.1627517 60.0750505,53.4060403 60.0750505,55.0318792 L60.0750505,57.9966443 C60.0750505,58.0922819 60.0750505,58.1879195 60.0750505,58.283557 C60.0750505,59.4312081 59.1062956,60.3875839 57.9437898,60.3875839 C56.781284,60.3875839 55.8125291,59.4312081 55.8125291,58.283557 L55.8125291,38.8691275 C55.8125291,37.3389262 54.5531478,36 52.9062646,36 C51.3562568,36 50,37.2432886 50,38.8691275 L50,58.283557 C50,62.5872483 53.4875175,66.0302013 57.8469143,66.0302013 C59.0094201,66.0302013 60.1719259,65.7432886 61.1406808,65.3607383 C62.4969376,67.5604027 65.0157002,69.090604 67.8250893,69.090604 C68.9875951,69.090604 70.1501009,68.8036913 71.1188558,68.4211409 C72.4751126,70.6208054 74.9938752,72.1510067 77.8032642,72.1510067 C78.5782681,72.1510067 79.2563965,72.0553691 79.9345249,71.864094 L79.9345249,85.1577181 C79.9345249,87.261745 80.7095288,89.1744966 82.2595366,90.704698 C83.7126688,92.1392617 85.747054,93 87.7814392,93 C92.140836,93 95.6283535,89.4614094 95.6283535,85.2533557 L95.6283535,54.0755034 L98.1471161,56.5620805 C100.85963,59.2399329 105.025276,59.6224832 108.222167,57.5184564 C110.062801,56.2751678 111.322182,54.3624161 111.612809,52.1627517 C112.484688,49.9630872 111.80656,47.7634228 110.353427,46.0419463 Z" id="Path" fill="#00A7FF" fill-rule="nonzero" mask="url(#mask-2)"></path>
        <path d="M87.5,98 C84.3558952,98 68.7336245,98.3766234 68.1441048,104.967532 L65.0982533,118.243506 L65,118.808442 C65,126.811688 85.1419214,127 87.5,127 C89.7598253,127 110,126.811688 110,118.808442 L106.855895,104.967532 C106.266376,98.2824675 90.7423581,98 87.5,98 Z M99.8799127,105.344156 C97.8165939,106.191558 93.4934498,107.133117 87.5,107.133117 C81.5065502,107.133117 77.1834061,106.191558 75.1200873,105.344156 C77.1834061,104.496753 81.5065502,103.555195 87.5,103.555195 C93.5917031,103.555195 97.8165939,104.496753 99.8799127,105.344156 Z M87.5,121.444805 C78.2641921,121.444805 72.4672489,119.655844 70.9934498,118.525974 L72.860262,110.522727 C77.871179,112.5 85.4366812,112.688312 87.5,112.688312 C89.5633188,112.688312 97.128821,112.5 102.139738,110.522727 L104.00655,118.525974 C102.532751,119.655844 96.7358079,121.444805 87.5,121.444805 Z" id="Shape" fill="#00A7FF" fill-rule="nonzero" mask="url(#mask-2)"></path>
    </g>
</svg>